<svg viewBox="0 0 260 69" xmlns="http://www.w3.org/2000/svg" fill-rule="evenodd" clip-rule="evenodd" stroke-linejoin="round" stroke-miterlimit="1.414" fill="#6e6e6e"><path d="M99.105 17.2H85.067c-.956 0-1.777.703-1.927 1.647l-5.677 35.996a1.175 1.175 0 0 0 1.156 1.35h6.703c.956 0 1.78-.704 1.927-1.648l1.531-9.709a1.955 1.955 0 0 1 1.926-1.648h4.444c9.246 0 14.583-4.474 15.977-13.341.628-3.88.026-6.928-1.79-9.062-1.995-2.344-5.534-3.584-10.232-3.584zm1.62 13.147c-.768 5.037-4.617 5.037-8.338 5.037h-2.118l1.486-9.406c.09-.567.583-.988 1.155-.988h.971c2.535 0 4.926 0 6.162 1.445.737.862.962 2.143.681 3.912zm40.34-.162h-6.722c-.573 0-1.065.421-1.156.988l-.297 1.88-.47-.682c-1.456-2.112-4.7-2.818-7.94-2.818-7.428 0-13.772 5.626-15.008 13.518-.642 3.937.271 7.701 2.504 10.327 2.049 2.413 4.98 3.42 8.467 3.42 5.985 0 9.304-3.85 9.304-3.85l-.3 1.868a1.176 1.176 0 0 0 1.154 1.355h6.055c.957 0 1.78-.704 1.928-1.648l3.633-23.007a1.17 1.17 0 0 0-1.151-1.35zm-9.37 13.083c-.648 3.84-3.696 6.419-7.584 6.419-1.952 0-3.512-.626-4.514-1.813-.993-1.178-1.37-2.855-1.055-4.723.606-3.807 3.705-6.47 7.533-6.47 1.91 0 3.46.635 4.483 1.831 1.024 1.21 1.43 2.897 1.137 4.756zm45.17-13.083h-6.754a1.96 1.96 0 0 0-1.616.856l-9.316 13.724-3.95-13.188a1.96 1.96 0 0 0-1.871-1.392h-6.642c-.64 0-1.17.528-1.17 1.17 0 .13.022.257.063.378l7.44 21.835-6.994 9.875c-.14.197-.216.435-.216.677 0 .643.528 1.17 1.17 1.17h6.747a1.95 1.95 0 0 0 1.603-.837l22.467-32.43c.136-.196.21-.43.21-.668 0-.642-.528-1.17-1.17-1.17z" fill-rule="nonzero"/><path d="M199.23 17.2h-14.04c-.954 0-1.777.703-1.925 1.647l-5.677 35.996a1.174 1.174 0 0 0 1.154 1.35h7.204c.67 0 1.244-.492 1.347-1.153l1.61-10.204a1.955 1.955 0 0 1 1.926-1.648h4.442c9.249 0 14.583-4.474 15.979-13.341.63-3.88.025-6.928-1.792-9.062-1.993-2.344-5.53-3.584-10.228-3.584zm1.62 13.147c-.766 5.037-4.614 5.037-8.338 5.037h-2.116l1.488-9.406a1.17 1.17 0 0 1 1.154-.988h.97c2.533 0 4.927 0 6.162 1.445.737.862.96 2.143.68 3.912zm40.338-.162h-6.718a1.167 1.167 0 0 0-1.153.988l-.298 1.88-.472-.682c-1.455-2.112-4.698-2.818-7.937-2.818-7.428 0-13.77 5.626-15.006 13.518-.64 3.937.269 7.701 2.502 10.327 2.052 2.413 4.98 3.42 8.467 3.42 5.985 0 9.304-3.85 9.304-3.85l-.3 1.868a1.175 1.175 0 0 0 1.156 1.355h6.055c.956 0 1.777-.704 1.925-1.648l3.635-23.007a1.178 1.178 0 0 0-1.158-1.35h-.002zm-9.37 13.083c-.644 3.84-3.696 6.419-7.584 6.419-1.947 0-3.512-.626-4.513-1.813-.994-1.178-1.367-2.855-1.055-4.723.61-3.807 3.705-6.47 7.533-6.47 1.909 0 3.46.635 4.482 1.831 1.029 1.21 1.435 2.897 1.138 4.756zm17.295-25.08l-5.761 36.655a1.174 1.174 0 0 0 1.154 1.35h5.792c.962 0 1.78-.698 1.927-1.648l5.681-35.994a1.177 1.177 0 0 0-1.154-1.353h-6.485a1.174 1.174 0 0 0-1.154.99z" fill="#979a9d" fill-rule="nonzero"/><path d="M19.168 63.188l1.074-6.818-2.392-.056H6.432L14.367 6a.651.651 0 0 1 .645-.55h19.253c6.391 0 10.802 1.33 13.105 3.955 1.08 1.232 1.768 2.519 2.1 3.935.349 1.486.355 3.262.014 5.427l-.024.158v1.388l1.08.611a7.545 7.545 0 0 1 2.185 1.667c.924 1.053 1.521 2.391 1.774 3.978.26 1.631.174 3.573-.253 5.771-.492 2.53-1.289 4.732-2.364 6.534a13.415 13.415 0 0 1-3.746 4.105c-1.429 1.014-3.126 1.784-5.045 2.276-1.86.485-3.98.729-6.306.729h-1.498a4.543 4.543 0 0 0-2.93 1.077 4.543 4.543 0 0 0-1.526 2.726l-.113.614-1.897 12.018-.086.44c-.022.14-.061.21-.119.257a.314.314 0 0 1-.197.072h-9.25z" fill-rule="nonzero"/><path d="M51.562 19.085a33.67 33.67 0 0 1-.197 1.129c-2.54 13.036-11.226 17.539-22.32 17.539h-5.649a2.74 2.74 0 0 0-2.71 2.324l-2.893 18.341-.819 5.2a1.452 1.452 0 0 0 1.427 1.67h10.018a2.41 2.41 0 0 0 2.381-2.032l.099-.51 1.886-11.97.12-.656a2.41 2.41 0 0 1 2.382-2.036h1.498c9.707 0 17.305-3.941 19.526-15.345.928-4.764.448-8.742-2.007-11.54a9.558 9.558 0 0 0-2.742-2.114z" fill="#979a9d" fill-rule="nonzero"/><path d="M48.906 18.026a20.313 20.313 0 0 0-2.47-.548 31.355 31.355 0 0 0-4.98-.363h-15.09a2.413 2.413 0 0 0-2.378 2.036l-3.21 20.332-.093.594a2.752 2.752 0 0 1 2.711-2.324h5.65c11.093 0 19.78-4.505 22.319-17.539.075-.386.14-.761.197-1.129-.67-.35-1.37-.646-2.088-.88a26.125 26.125 0 0 0-.568-.179z" fill-rule="nonzero"/><path d="M23.988 19.15a2.407 2.407 0 0 1 2.379-2.033h15.09c1.788 0 3.456.117 4.98.363 1.03.162 2.046.404 3.04.725.748.248 1.444.541 2.087.88.755-4.817-.007-8.097-2.611-11.067-2.872-3.27-8.054-4.67-14.686-4.67H15.014c-1.355 0-2.51.985-2.72 2.326l-8.02 50.831a1.662 1.662 0 0 0 1.632 1.913h11.887l2.984-18.935 3.21-20.332z" fill-rule="nonzero"/></svg>