<svg viewBox="0 0 300 85" xmlns="http://www.w3.org/2000/svg" fill-rule="evenodd" clip-rule="evenodd" stroke-linejoin="round" stroke-miterlimit="1.414" fill="#6e6e6e"><path d="M63.93 36.623H40.4a1.1 1.1 0 0 0-1.1 1.1v11.503c0 .607.493 1.101 1.1 1.101h9.179V64.62s-2.06.702-7.76.702c-6.721 0-16.112-2.456-16.112-23.106 0-20.654 9.779-23.372 18.959-23.372 7.946 0 11.37 1.4 13.548 2.073.685.21 1.318-.472 1.318-1.079l2.625-11.115c0-.284-.096-.627-.42-.859-.884-.631-6.282-3.651-19.917-3.651C26.113 4.213 10 10.896 10 43.02c0 32.126 18.447 36.913 33.993 36.913 12.87 0 20.679-5.5 20.679-5.5.322-.177.357-.627.357-.833V37.723a1.1 1.1 0 0 0-1.1-1.1M185.188 8.062c0-.612-.485-1.106-1.092-1.106h-13.248a1.1 1.1 0 0 0-1.097 1.106l.003 25.603h-20.65V8.062c0-.612-.488-1.106-1.094-1.106h-13.248a1.1 1.1 0 0 0-1.093 1.106v69.325c0 .611.49 1.109 1.093 1.109h13.248a1.1 1.1 0 0 0 1.094-1.109V47.734h20.65l-.036 29.653c0 .611.49 1.109 1.098 1.109h13.28a1.1 1.1 0 0 0 1.092-1.109V8.062zM88.93 17.16c0-4.77-3.825-8.626-8.544-8.626-4.714 0-8.541 3.855-8.541 8.625 0 4.765 3.827 8.631 8.54 8.631 4.72 0 8.544-3.866 8.544-8.63m-.947 45.603v-32a1.1 1.1 0 0 0-1.096-1.104H73.68c-.607 0-1.149.624-1.149 1.232v45.847c0 1.347.84 1.748 1.927 1.748h11.898c1.306 0 1.626-.641 1.626-1.77V62.764zm147.555-33h-13.146c-.603 0-1.094.496-1.094 1.108v33.992s-3.34 2.444-8.08 2.444c-4.741 0-6-2.15-6-6.793V30.871a1.1 1.1 0 0 0-1.092-1.108h-13.343c-.602 0-1.095.496-1.095 1.108V62.76c0 13.787 7.683 17.16 18.253 17.16 8.673 0 15.664-4.791 15.664-4.791s.332 2.525.484 2.824c.15.298.543.6.967.6l8.488-.037c.602 0 1.096-.498 1.096-1.107l-.005-46.537c0-.612-.491-1.108-1.097-1.108m30.746 37.501c-4.56-.139-7.653-2.208-7.653-2.208V43.103s3.051-1.87 6.795-2.204c4.734-.424 9.296 1.006 9.296 12.3 0 11.908-2.058 14.259-8.438 14.066m5.186-39.06c-7.467 0-12.546 3.332-12.546 3.332V8.062a1.1 1.1 0 0 0-1.093-1.106h-13.286a1.1 1.1 0 0 0-1.095 1.106v69.325c0 .612.49 1.11 1.096 1.11h9.219c.415 0 .729-.215.961-.59.23-.372.56-3.195.56-3.195s5.432 5.147 15.716 5.147c12.075 0 18.999-6.124 18.999-27.492 0-21.37-11.06-24.161-18.531-24.161m-145.411 1.446h-9.938l-.015-13.129c0-.497-.256-.745-.831-.745h-13.542c-.526 0-.81.232-.81.738v13.567s-6.786 1.638-7.244 1.77a1.1 1.1 0 0 0-.794 1.057v8.526a1.1 1.1 0 0 0 1.095 1.108h6.944v20.51c0 15.234 10.686 16.73 17.896 16.73 3.295 0 7.237-1.058 7.887-1.298.394-.145.623-.552.623-.994l.01-9.379c0-.612-.516-1.107-1.098-1.107-.579 0-2.06.236-3.586.236-4.88 0-6.535-2.27-6.535-5.207l-.001-19.491h9.939c.605 0 1.097-.496 1.097-1.108v-10.68a1.1 1.1 0 0 0-1.097-1.104" fill-rule="nonzero"/></svg>