<svg viewBox="0 0 300 90" xmlns="http://www.w3.org/2000/svg" fill-rule="evenodd" clip-rule="evenodd" stroke-linejoin="round" stroke-miterlimit="1.414" fill="#6e6e6e"><g fill-rule="nonzero"><path d="M109.487 35.906c0-8.329 6.073-14.144 17.108-14.144 6.734 0 12.244 2.15 15.23 4.256.427.3 1.188 1.03.731 2.387-.584 1.461-1.658 3.659-2.43 5.087-.448.832-1.594.722-2.18.425-2.126-1.078-5.614-2.9-8.818-3.237a18.77 18.77 0 0 0-2.443-.106c-2.822.063-5.18 1.043-6.01 3.196-.162.407-.253.84-.268 1.278-.077 2.837 3.871 3.863 8.653 4.684 8.892 1.524 15.619 4.13 15.619 13.282 0 7.772-6.177 14.796-18.279 14.58-7.978-.16-13.638-2.857-16.671-5.472-.104-.09-1.258-1.265-.64-2.68.709-1.82 1.905-3.906 2.843-5.014.521-.712 1.898-.825 2.613-.381 2.5 1.553 6.615 4.044 11.358 4.21.374.013.745.015 1.109.005 4.266-.103 6.848-1.72 6.794-4.446-.047-2.4-3.43-3.803-8.816-4.818-8.59-1.618-15.502-4.45-15.502-13.092m78.045 11.86c-6.058.079-11.613 1.735-11.772 6.47-.002 3.756 3.045 5.601 7.323 5.36 4.103-.395 7.233-2.175 8.611-4.536.51-.876.587-4.15.556-5.55-.008-.298-.597-.861-.855-.97-1.287-.542-2.24-.71-3.864-.776M167.376 28.69c2.832-2.535 8.449-6.481 17.401-6.273 11.813.246 18.053 5.784 18.635 19.032.24 5.463-.157 20.702-.252 24.5-.014.544-.199.92-.932.934-1.946.079-6.44.048-8.505.02-1.042-.05-1.163-.567-1.176-1.108-.01-.355-.04-1.404-.062-2.26-.011-.455-.438-.442-.548-.325-2.77 2.958-7.309 4.387-12.135 4.387-7.335 0-14.647-4.315-14.625-12.86.023-8.752 6.228-13.068 13.045-14.086 4.364-.65 9.286-.072 13.012 1.408.237.096.725-.043.728-.38.016-1.115-.038-3.24-.252-4.248-.548-2.566-2.688-4.631-7.186-5.188a13.84 13.84 0 0 0-2.792-.077c-3.576.28-7.878 3.069-9.66 4.112-.42.245-1.076.066-1.288-.208-1.04-1.343-3.655-5.272-3.86-5.9-.206-.626.084-1.153.45-1.483l.002.003zm39.931 16.29c-.07-12.205 8.434-22.501 22.243-22.592 8.618-.056 14.877 3.85 15.98 5.693.224.433.11.794-.046 1.23-.729 1.54-2.571 4.515-3.885 6.202-.559.718-1.166.103-1.871-.367-1.958-1.304-5.678-2.898-9.339-2.898-6.641 0-11.586 4.555-11.531 12.933.051 8.04 4.789 12.458 11.555 12.619 3.537.088 6.964-1.945 8.807-3.61.58-.505 1.179-.252 1.84.265 1.299 1.327 3.16 3.376 4.193 4.786.676.783.17 1.55-.073 1.858-2.801 3.545-8.212 6.529-15.372 6.569-14.994.105-22.43-10.437-22.5-22.685m71.567 22.135c.703-.053 8.213-1.09 10.52-1.617.57-.13.774-.612.455-1.088-1.288-1.93-4.672-7.412-8.216-12.319-3.26-4.512-6.697-8.48-7.808-10.007-.271-.37-.256-.736.04-1.024 2.113-2.068 10.955-10.738 14.28-14.319 1.287-1.392.514-1.992-.579-2.317-2.11-.63-5.527-1.414-7.47-1.824-.819-.173-1.805-.113-2.521.624-3.324 3.1-13.47 13.282-16.498 16.325-.545.55-.862.428-.866-.357-.024-5.868-.14-30.992-.35-35.124-.015-.547-.671-.961-1.042-.981-1.904-.1-6.715-.128-8.61-.017-.532.06-1.04.601-1.086 1.059-.436 6.608.186 55.114.446 61.9.018.49.383.87.85.898 1.89.11 6.57.102 8.753.061 1.075 0 1.206-.755 1.206-.755l.163-13.016s.11-.58.29-.77c.77-.83 2.9-3.112 3.808-3.995.218-.212.562-.197.785.103 1.08 1.456 4.156 6.188 7.009 10.415 2.62 3.883 5.068 7.33 5.238 7.573.395.562.856.584 1.203.573v-.001zm-127.723-.045c.66.022 5.671.016 7.892.013a1.1 1.1 0 0 0 1.16-1.05c.472-9.515.27-54.81-.028-61.963-.024-.618-.289-.85-.71-.906-1.907-.255-7.321-.196-9.057.258a.697.697 0 0 0-.55.678c-.426 18.436-.139 60.94-.05 61.746.09.806.512 1.196 1.345 1.224h-.002zM17.044 48.156c-3.088.023-5.703-1.817-6.668-4.69a7.774 7.774 0 0 1-.1-.327c-1.051-3.678.987-7.526 4.64-8.758l58.59-19.63a7.942 7.942 0 0 1 2.14-.312c3.17-.025 5.859 1.856 6.847 4.789l.087.283c1.096 3.831-1.627 7.25-4.89 8.347-.002.002-.595.202-58.266 19.892a7.584 7.584 0 0 1-2.38.406zM26.81 76.97c-3.112.023-5.737-1.791-6.69-4.623a7.22 7.22 0 0 1 4.534-9.17l58.594-19.809a7.55 7.55 0 0 1 2.325-.39c3.12-.023 5.862 1.884 6.83 4.747l.09.298c.566 1.98.231 4.203-.894 5.959-.839 1.305-3.484 2.454-3.484 2.454L29.3 76.546a8.066 8.066 0 0 1-2.488.426v-.001z"/><path d="M75.585 77.096a7.209 7.209 0 0 1-6.888-4.903L49.143 14.108l-.098-.326a7.19 7.19 0 0 1 4.63-8.799 7.16 7.16 0 0 1 5.5.374 7.18 7.18 0 0 1 3.624 4.155l19.553 58.08.056.187c1.099 3.846-.934 7.712-4.586 8.943a7.273 7.273 0 0 1-2.237.374zM46.519 86.88a7.212 7.212 0 0 1-6.891-4.908L20.078 23.89a7.192 7.192 0 0 1-.379-2.304 7.208 7.208 0 0 1 4.904-6.819 7.208 7.208 0 0 1 9.13 4.528l19.55 58.085c.25.742.379 1.52.379 2.303a7.208 7.208 0 0 1-7.146 7.196h.003z"/><path d="M65.945 64.015l13.635-4.662-4.457-13.237-13.65 4.613 4.472 13.286zm-29.022 9.923l13.634-4.661-4.49-13.338-13.648 4.614 4.504 13.385zm19.315-38.755l13.636-4.656-4.405-13.082-13.661 4.577 4.43 13.16zm-29.025 9.909l13.636-4.655-4.459-13.25-13.661 4.577 4.484 13.328z"/></g></svg>