<svg viewBox="0 0 2363 713" xmlns="http://www.w3.org/2000/svg" fill-rule="evenodd" clip-rule="evenodd" stroke-linejoin="round" stroke-miterlimit="1.414"><path d="M573.05 318.654c-112.475-66.795-298-72.937-405.37-40.345-17.247 5.229-35.48-4.505-40.7-21.746-5.23-17.254 4.495-35.475 21.75-40.717 123.258-37.413 328.15-30.183 457.633 46.68 15.512 9.203 20.6 29.233 11.404 44.716-9.2 15.508-29.246 20.62-44.717 11.412zm-3.683 98.934c-7.887 12.804-24.63 16.817-37.417 8.958-93.77-57.637-236.762-74.337-347.7-40.662-14.383 4.35-29.579-3.763-33.95-18.121-4.333-14.388 3.78-29.554 18.142-33.93 126.73-38.458 284.275-19.829 391.975 46.355 12.788 7.875 16.813 24.625 8.95 37.4zM526.671 512.6c-6.266 10.28-19.658 13.505-29.9 7.238-81.942-50.08-185.075-61.392-306.533-33.646-11.705 2.683-23.371-4.654-26.038-16.354-2.683-11.704 4.625-23.367 16.354-26.038 132.917-30.383 246.934-17.308 338.905 38.892 10.254 6.263 13.483 19.658 7.212 29.908zM366.646 9.32c-192.704 0-348.93 156.222-348.93 348.926 0 192.721 156.226 348.934 348.93 348.934 192.717 0 348.934-156.213 348.934-348.934 0-192.704-156.217-348.925-348.934-348.925zm600.392 322.126c-60.246-14.37-70.975-24.454-70.975-45.637 0-20.017 18.85-33.488 46.875-33.488 27.167 0 54.1 10.233 82.346 31.292a3.955 3.955 0 0 0 2.98.725 3.901 3.901 0 0 0 2.603-1.609l29.417-41.466a3.952 3.952 0 0 0-.75-5.367c-33.612-26.975-71.462-40.088-115.704-40.088-65.05 0-110.488 39.038-110.488 94.892 0 59.9 39.196 81.104 106.93 97.475 57.65 13.28 67.379 24.404 67.379 44.292 0 22.038-19.675 35.738-51.338 35.738-35.162 0-63.85-11.846-95.937-39.634-.796-.683-1.888-1-2.896-.941a3.913 3.913 0 0 0-2.704 1.391l-32.984 39.254a3.917 3.917 0 0 0 .388 5.471c37.337 33.33 83.25 50.938 132.8 50.938 70.096 0 115.392-38.304 115.392-97.584 0-50.096-29.934-77.804-103.334-95.654zm312.805 67.146c0 42.3-26.059 71.82-63.371 71.82-36.888 0-64.713-30.862-64.713-71.82s27.825-71.825 64.713-71.825c36.712 0 63.37 30.2 63.37 71.825zm-50.884-126.563c-30.383 0-55.304 11.963-75.854 36.484v-27.6a3.952 3.952 0 0 0-3.946-3.95h-53.941a3.949 3.949 0 0 0-3.942 3.95v306.675a3.95 3.95 0 0 0 3.942 3.954h53.941a3.953 3.953 0 0 0 3.946-3.954v-96.8c20.554 23.067 45.48 34.333 75.854 34.333 56.455 0 113.605-43.458 113.605-126.529 0-83.096-57.15-126.563-113.605-126.563zm260.096 198.826c-38.67 0-67.825-31.071-67.825-72.263 0-41.37 28.146-71.392 66.934-71.392 38.92 0 68.27 31.071 68.27 72.292 0 41.363-28.337 71.363-67.379 71.363zm0-198.826c-72.704 0-129.662 55.984-129.662 127.463 0 70.704 56.566 126.1 128.77 126.1 72.963 0 130.097-55.796 130.097-127 0-70.975-56.742-126.563-129.205-126.563zm284.463 4.934h-59.362v-60.696a3.945 3.945 0 0 0-3.938-3.95h-53.938a3.96 3.96 0 0 0-3.958 3.95v60.696h-25.937c-2.175 0-3.93 1.775-3.93 3.95v46.362c0 2.18 1.755 3.954 3.93 3.954h25.937v119.963c0 48.48 24.13 73.058 71.717 73.058 19.35 0 35.404-3.995 50.533-12.575a3.936 3.936 0 0 0 1.996-3.42v-44.15a3.965 3.965 0 0 0-1.875-3.363 3.948 3.948 0 0 0-3.842-.18c-10.391 5.23-20.437 7.643-31.666 7.643-17.304 0-25.03-7.855-25.03-25.467V331.229h59.363c2.18 0 3.933-1.775 3.933-3.954v-46.362c0-2.175-1.754-3.95-3.933-3.95zm206.822.233v-7.454c0-21.93 8.407-31.708 27.266-31.708 11.246 0 20.279 2.237 30.396 5.608 1.245.392 2.545.196 3.558-.546a3.924 3.924 0 0 0 1.63-3.208v-45.459a3.943 3.943 0 0 0-2.788-3.787c-10.688-3.18-24.363-6.446-44.838-6.446-49.83 0-76.162 28.063-76.162 81.113v11.416h-25.917a3.966 3.966 0 0 0-3.958 3.954v46.596a3.966 3.966 0 0 0 3.958 3.954h25.917v185.038a3.94 3.94 0 0 0 3.933 3.95h53.942a3.956 3.956 0 0 0 3.954-3.95V331.23h50.366l77.155 184.988c-8.759 19.438-17.371 23.304-29.13 23.304-9.504 0-19.512-2.837-29.745-8.437-.963-.53-2.1-.617-3.142-.296-1.03.367-1.896 1.13-2.333 2.133l-18.284 40.113a3.922 3.922 0 0 0 1.696 5.104c19.088 10.337 36.321 14.75 57.613 14.75 39.833 0 61.85-18.558 81.262-68.475l93.588-241.83c.466-1.216.329-2.591-.417-3.67a3.937 3.937 0 0 0-3.246-1.717h-56.158a3.968 3.968 0 0 0-3.738 2.65l-57.529 164.321-63.012-164.43a3.934 3.934 0 0 0-3.684-2.54h-92.154zm-119.901-.233h-53.946a3.956 3.956 0 0 0-3.95 3.95v235.354c0 2.18 1.77 3.95 3.95 3.95h53.946c2.175 0 3.95-1.77 3.95-3.95V280.913a3.958 3.958 0 0 0-3.95-3.95zm-26.7-107.163c-21.367 0-38.713 17.3-38.713 38.671 0 21.383 17.346 38.704 38.713 38.704 21.362 0 38.687-17.32 38.687-38.704 0-21.37-17.325-38.67-38.687-38.67zm474.801 130.571h-9.884v12.604h9.883c4.934 0 7.88-2.412 7.88-6.304 0-4.1-2.946-6.3-7.88-6.3zm6.408 17.98l10.737 15.037h-9.054l-9.667-13.792h-8.308v13.792h-7.58v-39.85h17.772c9.254 0 15.346 4.737 15.346 12.708 0 6.533-3.775 10.525-9.246 12.104zm-8.417-38.076c-19.446 0-34.163 15.459-34.163 34.388 0 18.92 14.613 34.17 33.963 34.17 19.442 0 34.17-15.445 34.17-34.387 0-18.917-14.62-34.17-33.97-34.17zm-.2 72.354c-21.35 0-37.963-17.145-37.963-37.966s16.83-38.163 38.163-38.163c21.346 0 37.963 17.142 37.963 37.946 0 20.825-16.817 38.183-38.163 38.183z" fill="#6e6e6e" fill-rule="nonzero"/></svg>